<svg width="36" height="34" viewBox="0 0 36 34" fill="none" xmlns="http://www.w3.org/2000/svg">
<path fill-rule="evenodd" clip-rule="evenodd" d="M14.5547 7.0241C12.6599 7.0241 10.8426 7.71717 9.50269 8.95084C8.1628 10.1845 7.41005 11.8577 7.41005 13.6024C7.41005 15.3471 8.1628 17.0203 9.50269 18.254C10.8426 19.4877 12.6599 20.1807 14.5547 20.1807C16.4496 20.1807 18.2669 19.4877 19.6068 18.254C20.9467 17.0203 21.6994 15.3471 21.6994 13.6024C21.6994 11.8577 20.9467 10.1845 19.6068 8.95084C18.2669 7.71717 16.4496 7.0241 14.5547 7.0241ZM3.83771 13.6024C3.83749 12.0494 4.23539 10.5184 4.99903 9.13367C5.76267 7.74898 6.87049 6.5498 8.2324 5.63365C9.59431 4.7175 11.1718 4.11025 12.8367 3.8613C14.5016 3.61234 16.2067 3.72871 17.8136 4.20093C19.4204 4.67316 20.8834 5.4879 22.0838 6.5789C23.2841 7.66991 24.1878 9.00636 24.7214 10.4796C25.255 11.9528 25.4034 13.5212 25.1545 15.0571C24.9056 16.5931 24.2665 18.0533 23.2891 19.319L31.8931 27.2409C32.2185 27.5511 32.3985 27.9665 32.3945 28.3977C32.3904 28.8289 32.2025 29.2414 31.8714 29.5463C31.5402 29.8512 31.0922 30.0242 30.6239 30.0279C30.1556 30.0317 29.7044 29.8659 29.3675 29.5663L20.7653 21.646C19.1619 22.6957 17.2757 23.3188 15.3133 23.4471C13.3509 23.5753 11.388 23.2036 9.63973 22.3729C7.89148 21.5422 6.42531 20.2844 5.4019 18.7374C4.37849 17.1903 3.83733 15.4138 3.83771 13.6024Z" fill="white"/>
</svg>
