<svg width="27" height="27" viewBox="0 0 27 27" fill="none" xmlns="http://www.w3.org/2000/svg">
<path fill-rule="evenodd" clip-rule="evenodd" d="M13.5 12.15C14.5741 12.15 15.6042 11.7233 16.3638 10.9638C17.1233 10.2042 17.55 9.17411 17.55 8.09999C17.55 7.02586 17.1233 5.99573 16.3638 5.23621C15.6042 4.47668 14.5741 4.04999 13.5 4.04999C12.4259 4.04999 11.3957 4.47668 10.6362 5.23621C9.87668 5.99573 9.44999 7.02586 9.44999 8.09999C9.44999 9.17411 9.87668 10.2042 10.6362 10.9638C11.3957 11.7233 12.4259 12.15 13.5 12.15ZM4.04999 24.3C4.04999 23.059 4.29442 21.8302 4.76933 20.6836C5.24423 19.5371 5.94032 18.4953 6.81783 17.6178C7.69534 16.7403 8.7371 16.0442 9.88363 15.5693C11.0302 15.0944 12.259 14.85 13.5 14.85C14.741 14.85 15.9698 15.0944 17.1163 15.5693C18.2629 16.0442 19.3046 16.7403 20.1821 17.6178C21.0597 18.4953 21.7557 19.5371 22.2307 20.6836C22.7056 21.8302 22.95 23.059 22.95 24.3H4.04999Z" fill="black"/>
</svg>
